<svg xmlns="http://www.w3.org/2000/svg" xmlns:xlink="http://www.w3.org/1999/xlink" width="603" height="693" viewBox="0 0 603 693">
  <defs>
    <clipPath id="clip-path">
      <rect id="Rectangle_91" data-name="Rectangle 91" width="39" height="38" transform="translate(1302.61 310.407) rotate(7.848)" fill="#fff"/>
    </clipPath>
  </defs>
  <g id="Group_57" data-name="Group 57" transform="translate(-83 962)">
    <rect id="Rectangle_92" data-name="Rectangle 92" width="603" height="693" transform="translate(83 -962)" fill="#0c9"/>
    <g id="Group_56" data-name="Group 56" transform="translate(670 0.956)">
      <g id="Group_50" data-name="Group 50" transform="translate(-1424 -962)">
        <rect id="Rectangle_86" data-name="Rectangle 86" width="77" height="77" rx="10" transform="matrix(0.998, -0.063, 0.063, 0.998, 928.999, 172.845)" fill="#fff"/>
      </g>
      <path id="Path_265" data-name="Path 265" d="M986.2,217.959l-1.061-16.841L953.7,203.1l.349,5.542a10.125,10.125,0,0,1,14.455,12.552l3.724,3.283,8.71-.549a5.624,5.624,0,0,0,5.26-5.968Zm-1.273-20.21a5.624,5.624,0,0,0-5.968-5.26l-20.21,1.274a5.624,5.624,0,0,0-5.26,5.967l.071,1.123L985,198.872Zm-20.711,25.66a7.874,7.874,0,1,1,1.487-1.687l6.087,5.365a1.126,1.126,0,0,1-1.487,1.69l-6.087-5.365Zm.51-6.351a5.626,5.626,0,1,0-1.394,4.073A5.625,5.625,0,0,0,964.726,217.058Z" transform="translate(-1424 -962)" fill="#0c9"/>
      <g id="Group_51" data-name="Group 51" transform="translate(-1424 -962)">
        <rect id="Rectangle_87" data-name="Rectangle 87" width="77" height="77" rx="10" transform="translate(1286.508 287.995) rotate(7.848)" fill="#fff"/>
      </g>
      <g id="Group_52" data-name="Group 52" transform="translate(-1424 -962)" clip-path="url(#clip-path)">
        <path id="Path_266" data-name="Path 266" d="M1331.21,352.709l-28.95-3.99a4.743,4.743,0,0,1-3.22-1.849,4.5,4.5,0,0,1-.96-3.522l3.89-28.233a4.53,4.53,0,0,1,1.88-3.132,4.735,4.735,0,0,1,3.6-.909l28.94,3.991a4.761,4.761,0,0,1,3.23,1.849,4.532,4.532,0,0,1,.95,3.521l-3.89,28.233a4.517,4.517,0,0,1-1.87,3.132A4.752,4.752,0,0,1,1331.21,352.709Zm-20.26-13.58a1.09,1.09,0,0,0-.24-.877,1.183,1.183,0,0,0-.8-.466l-2.41-.332a1.189,1.189,0,0,0-.9.232,1.114,1.114,0,0,0-.47.778l-.65,4.705a1.169,1.169,0,0,0,.24.877,1.21,1.21,0,0,0,.8.466l2.42.332a1.176,1.176,0,0,0,.89-.232,1.162,1.162,0,0,0,.48-.778Zm10.95-8.081a1.169,1.169,0,0,0-.24-.877,1.21,1.21,0,0,0-.8-.466l-2.42-.332a1.176,1.176,0,0,0-.89.232,1.114,1.114,0,0,0-.47.778l-1.95,14.116a1.169,1.169,0,0,0,.24.877,1.21,1.21,0,0,0,.8.466l2.42.332a1.176,1.176,0,0,0,.89-.232,1.114,1.114,0,0,0,.47-.778Zm11.27-10.434a1.126,1.126,0,0,0-.24-.876,1.211,1.211,0,0,0-.8-.467l-2.42-.332a1.176,1.176,0,0,0-.89.232,1.115,1.115,0,0,0-.47.778l-3.57,25.88a1.168,1.168,0,0,0,.24.877,1.206,1.206,0,0,0,.8.466l2.42.333a1.177,1.177,0,0,0,.89-.233,1.114,1.114,0,0,0,.47-.778Z" fill="#0c9"/>
      </g>
      <g id="Group_53" data-name="Group 53" transform="translate(-1424 -962)">
        <rect id="Rectangle_89" data-name="Rectangle 89" width="77" height="77" rx="10" transform="translate(900.996 442.564) rotate(-6.386)" fill="#fff"/>
      </g>
      <path id="Path_267" data-name="Path 267" d="M959.735,463.964a2,2,0,0,0-1.266-1.458l-16.791-6.171a2,2,0,0,0-1.779.2l-15.011,9.73a2.006,2.006,0,0,0-.91,1.7c0,.216.485,21.615,20.411,27.931a1.97,1.97,0,0,0,1.614-.18C964.04,485.151,959.781,464.177,959.735,463.964ZM944.748,491.8l-1.757-15.7-12.9,1.444a30.935,30.935,0,0,1-2.052-8.555l13.2-8.555,1.754,15.666,12.84-1.437A24.041,24.041,0,0,1,944.748,491.8Z" transform="translate(-1424 -962)" fill="#0c9"/>
    </g>
  </g>
</svg>
