<svg xmlns="http://www.w3.org/2000/svg" width="50.129" height="47.46" viewBox="0 0 50.129 47.46">
  <path id="Path_265" data-name="Path 265" d="M829.129,2301.97a1.94,1.94,0,0,0,1.132-3.51l-23.123-16.82a1.936,1.936,0,0,0-2.276,0l-23.123,16.82a1.941,1.941,0,0,0,1.138,3.51h3.748v22.65h-4.359a.486.486,0,0,0-.485.48v3.15a.48.48,0,0,0,.485.48h47.468a.48.48,0,0,0,.485-.48v-3.15a.486.486,0,0,0-.485-.48h-4.359v-22.65ZM806,2285.91l16.414,11.94H789.586Zm-15.016,16.06h7.084v22.65h-7.084Zm11.444,0h7.084v22.65h-7.084Zm18.588,22.65h-7.145v-22.65h7.145Z" transform="translate(-780.936 -2281.27)" fill="#0c9"/>
</svg>
