<svg xmlns="http://www.w3.org/2000/svg" width="49.166" height="49.16" viewBox="0 0 49.166 49.16" >
  <path id="Path_264" data-name="Path 264" d="M176.832,2293.81a8.6,8.6,0,0,0-1.165-7.21,8.486,8.486,0,0,0-2.727-2.56,8.637,8.637,0,0,0-3.556-1.17,7.366,7.366,0,0,0-6.967-4.95,7.326,7.326,0,0,0-4.917,1.91,7.324,7.324,0,0,0-11.861,3.04,8.662,8.662,0,0,0-3.565,1.16,8.614,8.614,0,0,0-3.906,9.78,9.829,9.829,0,0,0-2.37,15.65,10.007,10.007,0,0,0-.423,2.87A9.84,9.84,0,0,0,143.5,2322a8.591,8.591,0,0,0,14,2.48,8.6,8.6,0,0,0,6.146,2.6,8.634,8.634,0,0,0,7.842-5.06,9.726,9.726,0,0,0,3.828-1.56,9.844,9.844,0,0,0,3.886-11,9.85,9.85,0,0,0-2.37-15.65Zm-25.478,28.36a3.694,3.694,0,0,1-3.614-2.95l-.521-1.97h-2.011a4.932,4.932,0,0,1-4.294-7.33l1.121-2-1.928-1.26a4.924,4.924,0,0,1,1.861-9.01l4.162-.64-2.6-3.31a3.651,3.651,0,0,1-.77-2.07,3.687,3.687,0,0,1,4.452-3.8l2.916.43v-2.97a2.459,2.459,0,1,1,4.917,0v33.19A3.7,3.7,0,0,1,151.354,2322.17Zm23.539-15.51-1.928,1.25,1.121,2.01a4.884,4.884,0,0,1,.622,2.41,4.953,4.953,0,0,1-5.039,4.92h-2.011l-.4,1.97a3.688,3.688,0,0,1-7.3-.74v-33.19a2.459,2.459,0,0,1,2.459-2.46,2.487,2.487,0,0,1,2.458,2.58v2.97l2.916-.55a3.691,3.691,0,0,1,4.452,3.8,3.651,3.651,0,0,1-.77,2.07l-2.6,3.32,4.162.63a4.924,4.924,0,0,1,1.861,9.01Z" transform="translate(-132.917 -2277.92)" fill="#0c9" />
</svg>
