<svg xmlns="http://www.w3.org/2000/svg" width="56.78" height="50.392" viewBox="0 0 56.78 50.392">
  <g id="Group_54" data-name="Group 54" transform="translate(-1103.64 -2284.808)">
    <path id="Path_208" data-name="Path 208" d="M1159.91,2303.55h-16.5a.523.523,0,0,0-.52.52v3.09a.516.516,0,0,0,.52.52h16.5a.514.514,0,0,0,.51-.52v-3.09A.521.521,0,0,0,1159.91,2303.55Zm-8.64,8.77h-7.86a.516.516,0,0,0-.52.52v3.09a.523.523,0,0,0,.52.52h7.86a.523.523,0,0,0,.52-.52v-3.09A.516.516,0,0,0,1151.27,2312.32Zm-21.51-14.53h-2.79a.717.717,0,0,0-.72.72v15.98a.7.7,0,0,0,.3.58l9.59,7a.727.727,0,0,0,1.01-.15l1.66-2.26v-.01a.732.732,0,0,0-.16-1.01l-8.17-5.9v-14.23A.711.711,0,0,0,1129.76,2297.79Z" fill="#0c9"/>
    <path id="Path_209" data-name="Path 209" d="M1150.87,2320.43h-3.72a1.066,1.066,0,0,0-.9.5,20.641,20.641,0,0,1-9.4,7.99,20.542,20.542,0,1,1,6.53-33.44,20.2,20.2,0,0,1,2.87,3.59,1.066,1.066,0,0,0,.9.5h3.72a.591.591,0,0,0,.53-.86,25.2,25.2,0,1,0,0,22.58A.594.594,0,0,0,1150.87,2320.43Z" fill="#0c9"/>
  </g>
</svg>
