<svg xmlns="http://www.w3.org/2000/svg" width="51.188" height="51.18" viewBox="0 0 51.188 51.18">
  <path id="Path_264" data-name="Path 264" d="M240.094,4336.5a25.594,25.594,0,1,0-25.594,25.59A25.595,25.595,0,0,0,240.094,4336.5Zm-26.166,11.24a1.963,1.963,0,0,1-.011-2.78l6.438-6.49H203.918a1.97,1.97,0,0,1,0-3.94h16.437l-6.438-6.49a1.924,1.924,0,0,1-.424-.64,1.945,1.945,0,0,1-.147-.75,1.936,1.936,0,0,1,.583-1.39,2.07,2.07,0,0,1,.641-.43,2.153,2.153,0,0,1,.754-.14,1.958,1.958,0,0,1,.754.15,2.034,2.034,0,0,1,.637.43l9.769,9.84a1.978,1.978,0,0,1,0,2.78l-9.769,9.84a2.027,2.027,0,0,1-.638.43,1.949,1.949,0,0,1-.753.15,1.781,1.781,0,0,1-.755-.14A2.047,2.047,0,0,1,213.928,4347.74Z" transform="translate(-188.906 -4310.91)" fill="#0c9"/>
</svg>
