<svg xmlns="http://www.w3.org/2000/svg" width="22.5" height="22.5" viewBox="0 0 22.5 22.5">
  <g id="Group_54" data-name="Group 54" transform="translate(-1182.25 -5012.25)">
    <g id="Group_50" data-name="Group 50">
      <path id="Path_144" data-name="Path 144" d="M1204.53,5021.3h-.91v-.05H1193.5v4.5h6.36a6.756,6.756,0,1,1-1.88-7.29l3.18-3.18a11.237,11.237,0,1,0,3.59,8.22A11.4,11.4,0,0,0,1204.53,5021.3Z" fill="#fff"/>
      <path id="Path_145" data-name="Path 145" d="M1183.55,5018.26l3.69,2.71a6.742,6.742,0,0,1,10.74-2.51l3.18-3.18a11.224,11.224,0,0,0-17.61,2.98Z" fill="#fff"/>
    </g>
    <path id="Path_146" data-name="Path 146" d="M1193.5,5034.75a11.163,11.163,0,0,0,7.54-2.92l-3.48-2.95a6.731,6.731,0,0,1-10.41-3.1l-3.67,2.83A11.264,11.264,0,0,0,1193.5,5034.75Z" fill="#fff"/>
    <path id="Path_147" data-name="Path 147" d="M1204.53,5021.3h-.91v-.05H1193.5v4.5h6.36a6.726,6.726,0,0,1-2.3,3.13h0l3.48,2.95a10.883,10.883,0,0,0,3.71-8.33A11.4,11.4,0,0,0,1204.53,5021.3Z" fill="#fff"/>
  </g>
</svg>
