<svg xmlns="http://www.w3.org/2000/svg" xmlns:xlink="http://www.w3.org/1999/xlink" width="165" height="33.714" viewBox="0 0 165 33.714">
  <defs>
    <clipPath id="clip-path">
      <rect id="Rectangle_80" data-name="Rectangle 80" width="27" height="27" transform="translate(207 96) rotate(-90)" fill="#fff"/>
    </clipPath>
  </defs>
  <g id="Group_50" data-name="Group 50" transform="translate(-100 -62.286)">
    <path id="Path_240" data-name="Path 240" d="M118.841,63.79v18.92a8.9,8.9,0,0,1-2.494,6.769,9.155,9.155,0,0,1-6.649,2.375,9.868,9.868,0,0,1-7.046-2.494A9.254,9.254,0,0,1,100,82.275h6.729a4.235,4.235,0,0,0,.712,2.652,2.508,2.508,0,0,0,2.059.871,2.358,2.358,0,0,0,1.9-.792,3.457,3.457,0,0,0,.673-2.3V63.79Z"/>
    <path id="Path_241" data-name="Path 241" d="M134.362,91.894a12.31,12.31,0,0,1-5.858-1.385,10.316,10.316,0,0,1-4.077-3.958,11.958,11.958,0,0,1-1.464-6.017,11.623,11.623,0,0,1,1.5-5.977,10.174,10.174,0,0,1,4.116-4,13.081,13.081,0,0,1,11.717,0,10.168,10.168,0,0,1,4.116,4,12.564,12.564,0,0,1-.039,11.993,10.181,10.181,0,0,1-4.156,3.958A12.311,12.311,0,0,1,134.362,91.894Zm0-5.858a4.348,4.348,0,0,0,3.286-1.425,5.614,5.614,0,0,0,1.385-4.077,5.709,5.709,0,0,0-1.346-4.077,4.223,4.223,0,0,0-3.245-1.425,4.268,4.268,0,0,0-3.286,1.425,5.733,5.733,0,0,0-1.306,4.077,5.938,5.938,0,0,0,1.267,4.077A4.221,4.221,0,0,0,134.362,86.035Z"/>
    <path id="Path_242" data-name="Path 242" d="M156.28,72.617a6.966,6.966,0,0,1,2.731-2.494,8.53,8.53,0,0,1,4.077-.95,9.146,9.146,0,0,1,4.948,1.385,9.458,9.458,0,0,1,3.483,3.958,13.03,13.03,0,0,1,1.306,5.977,13.278,13.278,0,0,1-1.306,6.016,9.735,9.735,0,0,1-3.483,4,9.146,9.146,0,0,1-4.948,1.385,8.682,8.682,0,0,1-4.077-.91,7.35,7.35,0,0,1-2.731-2.494v3.087h-6.769V62.286h6.769Zm9.658,7.877a5.35,5.35,0,0,0-1.425-3.958,4.547,4.547,0,0,0-3.444-1.465,4.629,4.629,0,0,0-3.443,1.465,6.459,6.459,0,0,0,0,8,4.781,4.781,0,0,0,6.887,0A5.629,5.629,0,0,0,165.938,80.494Z"/>
    <path id="Path_243" data-name="Path 243" d="M203.185,91.577h-6.768L185.1,74.438V91.577h-6.768V63.79H185.1l11.321,17.218V63.79h6.768Z" fill="#0c9"/>
    <path id="Path_245" data-name="Path 245" d="M265,69.49l-5.977,22.087h-7.481l-3.483-14.329-3.6,14.329h-7.442L231,69.49h6.768l3.127,15.793,3.721-15.793h7.165L255.54,85.2l3.087-15.714Z" fill="#0c9"/>
    <g id="Group_42" data-name="Group 42" clip-path="url(#clip-path)">
      <path id="Path_246" data-name="Path 246" d="M207,80.866a11.544,11.544,0,0,0,17.7,9.763l.01.025,5.022,5.022L234,91.41l-5.2-5.2-.022.005A11.543,11.543,0,1,0,207,80.866Zm5.127,0a6.414,6.414,0,1,1,6.415,6.414A6.414,6.414,0,0,1,212.127,80.866Z" fill="#0c9"/>
    </g>
  </g>
</svg>
