<svg xmlns="http://www.w3.org/2000/svg" xmlns:xlink="http://www.w3.org/1999/xlink" width="198" height="40.45" viewBox="0 0 198 40.45">
  <defs>
    <clipPath id="clip-path">
      <rect id="Rectangle_51" data-name="Rectangle 51" width="32.4" height="32.4" transform="translate(228.4 5036.71) rotate(-90)" fill="#fff"/>
    </clipPath>
  </defs>
  <g id="Group_49" data-name="Group 49" transform="translate(-100 -4996.26)">
    <path id="Path_134" data-name="Path 134" d="M122.609,4998.06v22.71q0,5.265-2.992,8.12a10.988,10.988,0,0,1-7.98,2.85,11.861,11.861,0,0,1-8.455-2.99c-2.121-2-3.182-4.83-3.182-8.51h8.075a5.1,5.1,0,0,0,.855,3.19,3.024,3.024,0,0,0,2.47,1.04,2.841,2.841,0,0,0,2.28-.95,4.131,4.131,0,0,0,.807-2.75v-22.71Z"/>
    <path id="Path_135" data-name="Path 135" d="M141.235,5031.79a14.755,14.755,0,0,1-7.03-1.67,12.307,12.307,0,0,1-4.892-4.75,14.308,14.308,0,0,1-1.758-7.22,13.958,13.958,0,0,1,1.805-7.17,12.219,12.219,0,0,1,4.94-4.8,15.714,15.714,0,0,1,14.06,0,12.225,12.225,0,0,1,4.94,4.8,15.067,15.067,0,0,1-.048,14.39,12.153,12.153,0,0,1-4.987,4.75A14.758,14.758,0,0,1,141.235,5031.79Zm0-7.03a5.215,5.215,0,0,0,3.942-1.71,6.736,6.736,0,0,0,1.663-4.9,6.855,6.855,0,0,0-1.615-4.89,5.071,5.071,0,0,0-3.9-1.71,5.124,5.124,0,0,0-3.943,1.71,6.884,6.884,0,0,0-1.567,4.89,7.136,7.136,0,0,0,1.52,4.9A5.068,5.068,0,0,0,141.235,5024.76Z"/>
    <path id="Path_136" data-name="Path 136" d="M167.536,5008.65a8.387,8.387,0,0,1,3.277-2.99,10.234,10.234,0,0,1,4.893-1.14,11.042,11.042,0,0,1,5.937,1.66,11.414,11.414,0,0,1,4.18,4.75,15.656,15.656,0,0,1,1.567,7.18,15.947,15.947,0,0,1-1.567,7.22,11.722,11.722,0,0,1-4.18,4.79,10.965,10.965,0,0,1-5.937,1.67,10.4,10.4,0,0,1-4.893-1.1,8.766,8.766,0,0,1-3.277-2.99v3.71h-8.122v-35.15h8.122Zm11.59,9.46a6.415,6.415,0,0,0-1.71-4.75,5.467,5.467,0,0,0-4.133-1.76,5.562,5.562,0,0,0-4.132,1.76,7.745,7.745,0,0,0,0,9.59,5.732,5.732,0,0,0,8.265,0A6.749,6.749,0,0,0,179.126,5018.11Z"/>
    <path id="Path_137" data-name="Path 137" d="M223.823,5031.41H215.7l-13.584-20.57v20.57h-8.123v-33.35h8.123l13.584,20.66v-20.66h8.123Z" fill="#fff"/>
    <path id="Path_138" data-name="Path 138" d="M241.775,5031.79a14.755,14.755,0,0,1-7.03-1.67,12.307,12.307,0,0,1-4.892-4.75,14.308,14.308,0,0,1-1.758-7.22,13.958,13.958,0,0,1,1.8-7.17,12.219,12.219,0,0,1,4.94-4.8,15.714,15.714,0,0,1,14.06,0,12.216,12.216,0,0,1,4.939,4.8,15.071,15.071,0,0,1-.047,14.39,12.153,12.153,0,0,1-4.987,4.75A14.758,14.758,0,0,1,241.775,5031.79Zm0-7.03a5.215,5.215,0,0,0,3.942-1.71,6.736,6.736,0,0,0,1.663-4.9,6.855,6.855,0,0,0-1.615-4.89,5.071,5.071,0,0,0-3.9-1.71,5.124,5.124,0,0,0-3.943,1.71,6.884,6.884,0,0,0-1.567,4.89,7.136,7.136,0,0,0,1.52,4.9A5.068,5.068,0,0,0,241.775,5024.76Z" fill="#fff"/>
    <path id="Path_139" data-name="Path 139" d="M298,5004.9l-7.172,26.51H281.85l-4.179-17.2-4.323,17.2h-8.93L257.2,5004.9h8.122l3.752,18.95,4.465-18.95h8.6l4.513,18.86,3.7-18.86Z" fill="#fff"/>
    <g id="Group_26" data-name="Group 26" clip-path="url(#clip-path)">
      <path id="Path_140" data-name="Path 140" d="M228.4,5018.55a13.859,13.859,0,0,0,21.242,11.72c.005.01.008.02.013.03l6.026,6.02,5.119-5.11-6.245-6.25c-.009,0-.017.01-.026.01a13.853,13.853,0,1,0-26.129-6.42Zm6.153,0a7.7,7.7,0,1,1,7.7,7.7A7.692,7.692,0,0,1,234.553,5018.55Z" fill="#fff"/>
    </g>
  </g>
</svg>
