<svg xmlns="http://www.w3.org/2000/svg" width="110" height="93" viewBox="0 0 110 93">
  <g id="Group_56" data-name="Group 56" transform="translate(-129 -3087)">
    <circle id="Ellipse_3" data-name="Ellipse 3" cx="46.5" cy="46.5" r="46.5" transform="translate(138 3087)" fill="#d60b0b"/>
    <path id="Path_159" data-name="Path 159" d="M129,3140.25a24.1,24.1,0,0,1,2.881-12,20.425,20.425,0,0,1,8.085-7.9,23.469,23.469,0,0,1,11.337-2.76,20.926,20.926,0,0,1,8.921,1.81,14.762,14.762,0,0,1,6.227,4.82V3104h18.307v58.45H166.451v-6.16a14.691,14.691,0,0,1-6.041,4.89,21.635,21.635,0,0,1-9.2,1.82,23.469,23.469,0,0,1-11.337-2.76,20.67,20.67,0,0,1-7.992-7.9A24.611,24.611,0,0,1,129,3140.25Zm37.544,0a8.468,8.468,0,0,0-2.788-6.71,9.591,9.591,0,0,0-6.691-2.45,9.717,9.717,0,0,0-6.784,2.45,8.466,8.466,0,0,0-2.7,6.71,8.88,8.88,0,0,0,2.7,6.8,9.711,9.711,0,0,0,6.784,2.44,9.584,9.584,0,0,0,6.691-2.44A8.591,8.591,0,0,0,166.544,3140.25Z" fill="#fff"/>
    <path id="Path_160" data-name="Path 160" d="M217.347,3163a37.88,37.88,0,0,1-12.638-1.97,22.658,22.658,0,0,1-8.736-5.53,13.484,13.484,0,0,1-3.531-7.98H210.1a4.7,4.7,0,0,0,2.323,3.32,9.159,9.159,0,0,0,4.832,1.18,6.749,6.749,0,0,0,3.532-.79,2.338,2.338,0,0,0,1.3-2.05c0-1.11-.713-1.92-2.138-2.45a49.038,49.038,0,0,0-7.062-1.74,69.48,69.48,0,0,1-9.293-2.13,16.454,16.454,0,0,1-6.5-3.87,9.8,9.8,0,0,1-2.7-7.27,11.151,11.151,0,0,1,2.509-7.11,16.774,16.774,0,0,1,7.341-5.13,32.97,32.97,0,0,1,11.8-1.89q10.222,0,16.077,4.26a16.015,16.015,0,0,1,6.784,11.22H222.458a4.845,4.845,0,0,0-2.23-3.24,7.746,7.746,0,0,0-4.553-1.19,6.884,6.884,0,0,0-3.439.71,2.243,2.243,0,0,0-1.115,1.98c0,1.05.712,1.87,2.137,2.45a46.358,46.358,0,0,0,6.877,1.66,65.213,65.213,0,0,1,9.386,2.29,16.3,16.3,0,0,1,6.6,4.1,10.019,10.019,0,0,1,2.881,7.58,10.293,10.293,0,0,1-2.7,6.96,17.56,17.56,0,0,1-7.527,4.89A33.776,33.776,0,0,1,217.347,3163Z" fill="#fff"/>
  </g>
</svg>
