<svg xmlns="http://www.w3.org/2000/svg" width="36.334" height="44.16" viewBox="0 0 36.334 44.16">
  <g id="Group_56" data-name="Group 56" transform="translate(-451.333 -1096.42)">
    <path id="Path_225" data-name="Path 225" d="M453.833,1102.83v31.34a3.906,3.906,0,0,0,3.917,3.91h23.5a3.9,3.9,0,0,0,3.917-3.91v-22.83a3.912,3.912,0,0,0-1.179-2.8l-8.7-8.51a3.935,3.935,0,0,0-2.738-1.11h-14.8a3.906,3.906,0,0,0-3.917,3.91Z" fill="none" stroke="#0c9" stroke-linecap="round" stroke-linejoin="round" stroke-width="5"/>
    <path id="Path_226" data-name="Path 226" d="M463.625,1120.46h11.75" fill="none" stroke="#0c9" stroke-linecap="round" stroke-linejoin="round" stroke-width="5"/>
    <path id="Path_227" data-name="Path 227" d="M463.625,1128.29H469.5" fill="none" stroke="#0c9" stroke-linecap="round" stroke-linejoin="round" stroke-width="5"/>
    <g id="Group_54" data-name="Group 54">
      <path id="Path_228" data-name="Path 228" d="M473.417,1098.92v7.83a3.921,3.921,0,0,0,3.916,3.92h7.834" fill="none" stroke="#0c9" stroke-linejoin="round" stroke-width="5"/>
    </g>
  </g>
</svg>
