<svg xmlns="http://www.w3.org/2000/svg" width="47.5" height="52.24" viewBox="0 0 47.5 52.24">
  <g id="Group_60" data-name="Group 60" transform="translate(-772.125 -1092.38)">
    <path id="Path_231" data-name="Path 231" d="M776.875,1101.88h4.75V1109h23.75v-7.12h4.75v11.87h4.75v-11.87a4.768,4.768,0,0,0-4.75-4.76H800.2a7.1,7.1,0,0,0-13.394,0h-9.928a4.768,4.768,0,0,0-4.75,4.76v33.24a4.768,4.768,0,0,0,4.75,4.76H788.75v-4.76H776.875Zm16.625-4.76a2.38,2.38,0,1,1-2.375,2.38A2.384,2.384,0,0,1,793.5,1097.12Z" fill="#0c9"/>
    <path id="Path_232" data-name="Path 232" d="M813.212,1134.89a11.481,11.481,0,0,0,1.663-5.7,10.688,10.688,0,1,0-10.687,10.69,11.436,11.436,0,0,0,5.7-1.67l6.413,6.41,3.325-3.32Zm-9.024.23a5.935,5.935,0,1,1,5.937-5.93A5.877,5.877,0,0,1,804.188,1135.12Z" fill="#0c9"/>
  </g>
</svg>
