<svg xmlns="http://www.w3.org/2000/svg" width="39.556" height="42.787" viewBox="0 0 39.556 42.787">
  <path id="Path_272" data-name="Path 272" d="M959.735,463.964a2,2,0,0,0-1.266-1.458l-16.791-6.171a2,2,0,0,0-1.779.2l-15.011,9.73a2.006,2.006,0,0,0-.91,1.7c0,.216.485,21.615,20.411,27.931a1.97,1.97,0,0,0,1.614-.18C964.04,485.151,959.781,464.177,959.735,463.964ZM944.748,491.8l-1.757-15.7-12.9,1.444a30.935,30.935,0,0,1-2.052-8.555l13.2-8.555,1.754,15.666,12.84-1.437A24.041,24.041,0,0,1,944.748,491.8Z" transform="matrix(0.996, 0.087, -0.087, 0.996, -877.233, -535.006)" fill="#0c9"/>
</svg>
