<svg xmlns="http://www.w3.org/2000/svg" xmlns:xlink="http://www.w3.org/1999/xlink" width="39.1" height="38.103" viewBox="0 0 39.1 38.103">
  <defs>
    <clipPath id="clip-path">
      <rect id="Rectangle_94" data-name="Rectangle 94" width="39" height="38" transform="translate(1302.61 310.407) rotate(7.848)" fill="#fff"/>
    </clipPath>
  </defs>
  <g id="Group_53" data-name="Group 53" transform="translate(-1333.133 -125.995) rotate(-8)" clip-path="url(#clip-path)">
    <path id="Path_270" data-name="Path 270" d="M1331.21,352.709l-28.95-3.99a4.743,4.743,0,0,1-3.22-1.849,4.5,4.5,0,0,1-.96-3.522l3.89-28.233a4.53,4.53,0,0,1,1.88-3.132,4.735,4.735,0,0,1,3.6-.909l28.94,3.991a4.761,4.761,0,0,1,3.23,1.849,4.532,4.532,0,0,1,.95,3.521l-3.89,28.233a4.517,4.517,0,0,1-1.87,3.132A4.752,4.752,0,0,1,1331.21,352.709Zm-20.26-13.58a1.09,1.09,0,0,0-.24-.877,1.183,1.183,0,0,0-.8-.466l-2.41-.332a1.189,1.189,0,0,0-.9.232,1.114,1.114,0,0,0-.47.778l-.65,4.705a1.169,1.169,0,0,0,.24.877,1.21,1.21,0,0,0,.8.466l2.42.332a1.176,1.176,0,0,0,.89-.232,1.162,1.162,0,0,0,.48-.778Zm10.95-8.081a1.169,1.169,0,0,0-.24-.877,1.21,1.21,0,0,0-.8-.466l-2.42-.332a1.176,1.176,0,0,0-.89.232,1.114,1.114,0,0,0-.47.778l-1.95,14.116a1.169,1.169,0,0,0,.24.877,1.21,1.21,0,0,0,.8.466l2.42.332a1.176,1.176,0,0,0,.89-.232,1.114,1.114,0,0,0,.47-.778Zm11.27-10.434a1.126,1.126,0,0,0-.24-.876,1.211,1.211,0,0,0-.8-.467l-2.42-.332a1.176,1.176,0,0,0-.89.232,1.115,1.115,0,0,0-.47.778l-3.57,25.88a1.168,1.168,0,0,0,.24.877,1.206,1.206,0,0,0,.8.466l2.42.333a1.177,1.177,0,0,0,.89-.233,1.114,1.114,0,0,0,.47-.778Z" fill="#0c9"/>
  </g>
</svg>
