<svg xmlns="http://www.w3.org/2000/svg" xmlns:xlink="http://www.w3.org/1999/xlink" width="25" height="21" viewBox="0 0 25 21">
  <defs>
    <clipPath id="clip-path">
      <rect id="Rectangle_92" data-name="Rectangle 92" width="25" height="21" transform="translate(1271 5014)" fill="#fff"/>
    </clipPath>
  </defs>
  <g id="Group_52" data-name="Group 52" transform="translate(-1271 -5014)" clip-path="url(#clip-path)">
    <path id="Path_266" data-name="Path 266" d="M1296,5016.56a10.117,10.117,0,0,1-2.95.83,5.293,5.293,0,0,0,2.26-2.92,10.178,10.178,0,0,1-3.26,1.28,5.036,5.036,0,0,0-3.74-1.67,5.314,5.314,0,0,0-5,6.48,14.437,14.437,0,0,1-10.57-5.51,5.366,5.366,0,0,0-.69,2.65,5.293,5.293,0,0,0,2.28,4.39,4.936,4.936,0,0,1-2.33-.66v.07a5.234,5.234,0,0,0,4.12,5.17,4.925,4.925,0,0,1-2.32.1,5.156,5.156,0,0,0,4.79,3.66,10.058,10.058,0,0,1-6.37,2.26c-.41,0-.82-.03-1.22-.07a14.293,14.293,0,0,0,7.86,2.37c9.44,0,14.6-8.04,14.6-15.02,0-.23-.01-.45-.02-.68A10.735,10.735,0,0,0,1296,5016.56Z" fill="#fff"/>
  </g>
</svg>
